<?xml version="1.0" standalone="no"?><!DOCTYPE svg PUBLIC "-//W3C//DTD SVG 1.1//EN" "http://www.w3.org/Graphics/SVG/1.1/DTD/svg11.dtd"><svg t="1533259706452" class="icon" style="" viewBox="0 0 1024 1024" version="1.1" xmlns="http://www.w3.org/2000/svg" p-id="2775" xmlns:xlink="http://www.w3.org/1999/xlink" width="32" height="32"><defs><style type="text/css"></style></defs><path d="M512 1024c-283.569231 0-512-228.430769-512-512s228.430769-512 512-512 512 228.430769 512 512-228.430769 512-512 512z m0-23.630769c267.815385 0 488.369231-220.553846 488.369231-488.369231 0-267.815385-220.553846-488.369231-488.369231-488.369231s-488.369231 220.553846-488.369231 488.369231c0 267.815385 220.553846 488.369231 488.369231 488.369231z" p-id="2776" fill="#9c9ba0"></path><path d="M393.846154 634.092308s11.815385 11.815385 51.2 55.138461c165.415385-177.230769 3.938462-354.461538 3.938461-354.461538l-43.323077 43.323077s114.215385 161.476923-11.815384 256z" p-id="2777" fill="#9c9ba0"></path><path d="M512 748.307692l55.138462 59.076923c279.630769-346.584615 0-594.707692 0-594.707692l-51.2 51.2s224.492308 240.246154-3.938462 484.430769zM275.692308 512l70.892307 70.892308c51.2-82.707692 0-145.723077 0-145.723077l-70.892307 74.830769z" p-id="2778" fill="#9c9ba0"></path></svg>