<?xml version="1.0" standalone="no"?><!DOCTYPE svg PUBLIC "-//W3C//DTD SVG 1.1//EN" "http://www.w3.org/Graphics/SVG/1.1/DTD/svg11.dtd"><svg t="1533203228740" class="icon" style="" viewBox="0 0 1223 1024" version="1.1" xmlns="http://www.w3.org/2000/svg" p-id="3556" xmlns:xlink="http://www.w3.org/1999/xlink" width="38.21875" height="32"><defs><style type="text/css"></style></defs><path d="M813.132561 67.966804c29.380187 0 42.98886 18.508561 64.54071 46.625495l37.112822 47.104c26.891963 31.73443 35.217944 46.625495 64.540711 46.625495h108.256897a68.043364 68.043364 0 0 1 67.966804 67.966804V888.104673a68.043364 68.043364 0 0 1-67.966804 67.966804H135.895327A68.043364 68.043364 0 0 1 67.966804 888.104673V276.288598A68.062505 68.062505 0 0 1 135.895327 208.321794h108.256897c29.303626 0 38.395215-14.31686 64.52157-46.625495l37.112823-47.104c23.083065-29.590729 35.179664-46.625495 64.54071-46.625495h402.805234m0-67.966804H410.384748C351.758355 0 332.560748 32.232075 281.360748 93.23185l-37.151103 47.104H135.895327a136.335551 136.335551 0 0 0-135.895327 135.895328V888.104673a136.335551 136.335551 0 0 0 135.895327 135.895327h951.688374a136.335551 136.335551 0 0 0 135.895327-135.895327V276.288598a136.335551 136.335551 0 0 0-135.895327-135.895327h-108.256897l-37.131963-47.104C891.090542 32.366056 871.758953 0 813.132561 0zM611.758654 343.508935A203.919551 203.919551 0 1 1 407.839103 547.409346a204.149234 204.149234 0 0 1 203.919551-203.900411m0-67.966804A271.905495 271.905495 0 1 0 883.66415 547.409346a271.886355 271.886355 0 0 0-271.905496-271.790654z" fill="#ffffff" p-id="3557"></path></svg>