<?xml version="1.0" standalone="no"?><!DOCTYPE svg PUBLIC "-//W3C//DTD SVG 1.1//EN" "http://www.w3.org/Graphics/SVG/1.1/DTD/svg11.dtd"><svg t="1533193597304" class="icon" style="" viewBox="0 0 1331 1024" version="1.1" xmlns="http://www.w3.org/2000/svg" p-id="7286" xmlns:xlink="http://www.w3.org/1999/xlink" width="62.390625" height="48"><defs><style type="text/css"></style></defs><path d="M983.936 1009.8944v-37.0688c0-101.7088-175.7952-201.0112-332.1856-253.7728-7.168-2.3808-52.224-23.0912-23.9872-110.3104h-0.512c73.4464-76.9024 129.5872-200.832 129.5872-322.8416C756.8384 98.3808 634.368 0 491.9808 0 349.5168 0 227.7376 98.2784 227.7376 285.9008c0 122.5216 55.808 246.8864 129.6896 323.712 28.7744 76.9024-22.7328 105.472-33.4848 109.3888C174.8992 773.9392 0 874.0352 0 972.7744v37.0688" p-id="7287" fill="#46c01b"></path><path d="M1331.2 204.8H868.1728v87.7824H1331.2zM1331.2 438.8608H954.9824v87.7824H1331.2zM1331.2 643.6608H1012.864v87.7824H1331.2z" p-id="7288" fill="#46c01b"></path></svg>