<?xml version="1.0" standalone="no"?><!DOCTYPE svg PUBLIC "-//W3C//DTD SVG 1.1//EN" "http://www.w3.org/Graphics/SVG/1.1/DTD/svg11.dtd"><svg t="1533124694738" class="icon" style="" viewBox="0 0 1024 1024" version="1.1" xmlns="http://www.w3.org/2000/svg" p-id="14675" xmlns:xlink="http://www.w3.org/1999/xlink" width="200" height="200"><defs><style type="text/css"></style></defs><path d="M512 959c-60.3 0-118.9-11.8-174-35.1-53.2-22.5-101-54.7-142.1-95.8s-73.3-88.9-95.8-142.1C76.8 630.9 65 572.3 65 512s11.8-118.9 35.1-174c22.5-53.2 54.7-101 95.8-142.1s88.9-73.3 142.1-95.8C393.1 76.8 451.7 65 512 65s118.9 11.8 174 35.1c53.2 22.5 101 54.7 142.1 95.8s73.3 88.9 95.8 142.1c23.3 55.1 35.1 113.7 35.1 174s-11.8 118.9-35.1 174c-22.5 53.2-54.7 101-95.8 142.1s-88.9 73.3-142.1 95.8C630.9 947.2 572.3 959 512 959z m0-868.4c-56.9 0-112.1 11.1-164 33.1-50.2 21.2-95.2 51.6-133.9 90.3-38.7 38.7-69.1 83.8-90.3 133.9-22 51.9-33.1 107.1-33.1 164s11.1 112.1 33.1 164c21.2 50.2 51.6 95.2 90.3 133.9 38.7 38.7 83.8 69.1 133.9 90.3 51.9 22 107.1 33.1 164 33.1s112.1-11.1 164-33.1c50.2-21.2 95.2-51.6 133.9-90.3 38.7-38.7 69.1-83.8 90.3-133.9 22-51.9 33.1-107.1 33.1-164s-11.1-112.1-33.1-164c-21.2-50.2-51.6-95.2-90.3-133.9-38.7-38.7-83.8-69.1-133.9-90.3-51.9-21.9-107.1-33.1-164-33.1z" fill="#8a8a8a" p-id="14676"></path><path d="M269.1 771.5c-4.3 0-8.6-1.7-11.7-4.8-4.9-4.9-6.2-12.5-3.3-18.8l156.2-329.7c1.6-3.4 4.4-6.2 7.9-7.9l329.7-156.2c6.3-3 13.9-1.7 18.8 3.3 4.9 4.9 6.2 12.5 3.3 18.8L613.7 605.9c-1.6 3.4-4.4 6.2-7.9 7.9L276.1 769.9c-2.2 1.1-4.6 1.6-7 1.6z m163-339.4L288.2 735.8 592 591.9l143.9-303.8-303.8 144z" fill="#8a8a8a" p-id="14677"></path><path d="M512 584c-39.7 0-72-32.3-72-72s32.3-72 72-72 72 32.3 72 72-32.3 72-72 72z m0-118.4c-25.6 0-46.4 20.8-46.4 46.4s20.8 46.4 46.4 46.4 46.4-20.8 46.4-46.4-20.8-46.4-46.4-46.4z" fill="#8a8a8a" p-id="14678"></path></svg>