<?xml version="1.0" standalone="no"?><!DOCTYPE svg PUBLIC "-//W3C//DTD SVG 1.1//EN" "http://www.w3.org/Graphics/SVG/1.1/DTD/svg11.dtd"><svg t="1533288963055" class="icon" style="" viewBox="0 0 1024 1024" version="1.1" xmlns="http://www.w3.org/2000/svg" p-id="13543" xmlns:xlink="http://www.w3.org/1999/xlink" width="32" height="32"><defs><style type="text/css"></style></defs><path d="M1023.979571 416.3584V78.42816c0-42.89024-34.93888-77.80352-77.8752-77.80352l-331.1872 0.03072-14.19776-0.03072c-21.67296 0-54.5024 0-75.90912 21.38624L18.867251 527.37536A63.79008 63.79008 0 0 0 0.000051 572.79488c0 17.19296 6.6816 33.33632 18.83136 45.48608l386.7904 386.23232a63.75424 63.75424 0 0 0 45.47584 18.8672c17.19808 0 33.37216-6.69696 45.50656-18.82624l505.93792-505.344c21.69344-21.63712 21.56544-52.75136 21.43744-82.85184z m-260.32128-69.05344c-47.93856 0-86.784-38.77888-86.784-86.67136 0-47.86688 38.84544-86.656 86.784-86.656 47.93344 0 86.77376 38.78912 86.77376 86.656 0.00512 47.88736-38.8352 86.67136-86.77376 86.67136z" fill="#2781d7" p-id="13544"></path></svg>