<?xml version="1.0" standalone="no"?><!DOCTYPE svg PUBLIC "-//W3C//DTD SVG 1.1//EN" "http://www.w3.org/Graphics/SVG/1.1/DTD/svg11.dtd"><svg t="1533216666951" class="icon" style="" viewBox="0 0 1024 1024" version="1.1" xmlns="http://www.w3.org/2000/svg" p-id="3415" xmlns:xlink="http://www.w3.org/1999/xlink" width="16" height="16"><defs><style type="text/css"></style></defs><path d="M512.973201 970.111673c-27.157531 0-289.763224-211.158043-389.263063-339.040359C55.342501 568.650336 0 452.176271 0 370.045667c0-174.341158 127.683786-316.157339 284.630125-316.15734 95.841382 0 177.185034 79.315382 227.369875 161.262808 50.184842-81.947426 131.498817-161.262808 227.369875-161.262808 156.946338 0 284.630125 141.816182 284.630125 316.15734 0 82.31583-55.60243 198.998657-124.289351 261.55267-100.447458 129.513527-357.999872 338.513335-386.737448 338.513336zM284.631148 107.781772C157.394563 107.781772 53.894468 225.439846 53.894468 370.045667c0 68.419827 49.291461 170.342949 107.657946 222.551967 1.211641 1.105213 2.370067 2.316853 3.368852 3.630828 98.369044 127.789191 294.316086 274.724145 348.261721 313.985801 56.315702-40.684106 249.684938-188.906428 345.263319-313.432172a30.612344 30.612344 0 0 1 3.474257-3.683018c58.634602-52.342053 108.182923-154.47496 108.182923-223.053406 0-144.604797-103.500096-262.263895-230.734634-262.263895-82.605437 0-161.501247 88.052702-203.026543 175.316405-8.947106 18.789639-39.737512 18.789639-48.685641 0-41.526319-87.263703-120.420083-175.316406-203.02552-175.316405z" p-id="3416" fill="#576b95"></path></svg>