<?xml version="1.0" standalone="no"?><!DOCTYPE svg PUBLIC "-//W3C//DTD SVG 1.1//EN" "http://www.w3.org/Graphics/SVG/1.1/DTD/svg11.dtd"><svg t="1533295790999" class="icon" style="" viewBox="0 0 1000 1000" version="1.1" xmlns="http://www.w3.org/2000/svg" p-id="3357" xmlns:xlink="http://www.w3.org/1999/xlink" width="48" height="48"><defs><style type="text/css"></style></defs><path d="M0 0h1000v1000H0V0L0 0zM62.0025 812.9963H125V750h62.9975v125H62.0025v62.0025h125.995 125V875 750v-62.9975H125 62.0025V812.99625L62.0025 812.9963zM62.0025 562.0025H125h62.9975V500H250v-62.0025h-62.0025V500H125v-62.0025H62.0025V562.0024999999999L62.0025 562.0025zM312.9975 250v-62.9975V125 62.002500000000055H250V125h-62.0025v62.0025H250V250H125V62.002500000000055H62.0025V250v62.0025H125h125 62.9975V250L312.9975 250zM375 437.9975h-62.0025v124.005H375h62.9975V500H375V437.99750000000006L375 437.9975zM562.9975 187.0025H500V125h62.9975V62.002500000000055H500V125h-62.0025v62.0025V250H500h62.9975V187.00250000000005L562.9975 187.0025zM562.9975 312.0025H500V375h-62.0025v62.9975H500V375h62.9975V312.0025L562.9975 312.0025zM937.9975 250V125H875V62.002500000000055h-62.0025v125H875V250H750V62.002500000000055h-62.9975V250v62.0025H750h125 62.9975V250L937.9975 250zM937.9975 750H875v-62.9975h62.9975V625H875v-62.9975h62.9975V500H875v-62.0025H750V500h-62.9975v-62.0025h-124.00375V500H500v125h-62.0025v187.99624999999997H500V875h-62.0025v62.996249999999996H500h62.9975V875H625v62.996249999999996h125V875h62.9975H875v-62.003750000000004h62.9975V750L937.9975 750zM750 625H625v-62.9975h187.9975V625H875v62.996249999999996H750V625L750 625zM812.9975 500H875v62.0025h-62.0025V500L812.9975 500zM625 562.0025h-62.9975V500H625V562.0024999999999L625 562.0025zM687.0025 812.9963V750v-62.9975H750V750h62.9975v62.996249999999996H750V875H625v-62.003750000000004H687.0024999999999L687.0025 812.9963zM562.9975 625H625v62.996249999999996h-62.0025V625L562.9975 625zM625 812.9963h-62.9975V750H625V812.99625L625 812.9963zM500 687.9963h62.9975V750H500V687.99625L500 687.9963zM500 687.9963" p-id="3358" fill="#999999"></path></svg>