<?xml version="1.0" standalone="no"?><!DOCTYPE svg PUBLIC "-//W3C//DTD SVG 1.1//EN" "http://www.w3.org/Graphics/SVG/1.1/DTD/svg11.dtd"><svg t="1533371609224" class="icon" style="" viewBox="0 0 1024 1024" version="1.1" xmlns="http://www.w3.org/2000/svg" p-id="2216" xmlns:xlink="http://www.w3.org/1999/xlink" width="48" height="48"><defs><style type="text/css"></style></defs><path d="M236.291 323.577c0 23.811 19.307 43.119 43.127 43.119 23.821 0 43.128-19.304 43.128-43.119 0-23.813-19.307-43.119-43.128-43.119-23.818 0.001-43.127 19.304-43.127 43.119zM572.184 546.548c0 18.641 15.116 33.753 33.76 33.753s33.76-15.113 33.76-33.753c0-18.644-15.116-33.753-33.76-33.753-18.646 0.001-33.76 15.113-33.76 33.753zM456.282 323.577c0 23.811 19.308 43.119 43.128 43.119 23.819 0 43.128-19.304 43.128-43.119 0-23.813-19.308-43.119-43.128-43.119-23.819 0.001-43.128 19.304-43.128 43.119z" p-id="2217" fill="#2ca347"></path><path d="M1024 0H0v1024H1023.999V166.44 0h0.001zM384.27 686.046c-38.75 0-69.912-7.914-108.745-15.583L167 724.866l31.046-93.367C120.324 577.19 73.817 507.217 73.817 421.945c0-147.681 139.793-263.962 310.452-263.962 152.651 0 286.376 92.919 313.24 217.977-9.878-1.105-19.833-1.823-29.893-1.823-147.47 0-263.941 110.034-263.941 245.633 0 22.569 3.514 44.303 9.58 65.038-9.579 0.753-19.242 1.238-28.985 1.238z m457.949 108.722l23.35 77.568-85.159-46.633c-31.049 7.782-62.236 15.584-93.152 15.584-147.706 0-264.048-100.937-264.048-225.242 0-124.097 116.338-225.249 264.048-225.249 139.504 0 263.704 101.153 263.704 225.249 0 70.001-46.428 131.986-108.743 178.723z" p-id="2218" fill="#2ca347"></path><path d="M741.355 546.548c0 18.641 15.116 33.753 33.76 33.753 18.643 0 33.76-15.113 33.76-33.753 0-18.644-15.117-33.753-33.76-33.753-18.646 0.001-33.76 15.113-33.76 33.753z" p-id="2219" fill="#2ca347"></path></svg>