<?xml version="1.0" standalone="no"?><!DOCTYPE svg PUBLIC "-//W3C//DTD SVG 1.1//EN" "http://www.w3.org/Graphics/SVG/1.1/DTD/svg11.dtd"><svg t="1533348804259" class="icon" style="" viewBox="0 0 1024 1024" version="1.1" xmlns="http://www.w3.org/2000/svg" p-id="5018" xmlns:xlink="http://www.w3.org/1999/xlink" width="32" height="32"><defs><style type="text/css"></style></defs><path d="M806.059468 806.059468c-6.410016 6.410016-16.025039 11.217527-27.242567 11.217527-9.615023 0-19.230047-3.205008-27.242566-11.217527L698.691706 753.176839c-14.422535-14.422535-14.422535-38.460094 0-52.882629s38.460094-14.422535 52.882629 0l52.882629 52.882629c6.410016 6.410016 11.217527 16.025039 11.217527 27.242566 1.602504 8.01252-3.205008 17.627543-9.615023 25.640063zM288.450704 679.461659c-78.522692-78.522692-102.56025-198.710485-59.292645-301.270736 43.267606-104.162754 144.225352-171.467919 256.400626-171.467918s213.13302 67.305164 256.400626 171.467918c43.267606 104.162754 19.230047 222.748044-59.292644 301.270736-110.57277 108.970266-285.245696 108.970266-394.215963 0z m346.140845-344.538341c-83.330203-83.330203-216.338028-83.330203-299.668231 0-83.330203 83.330203-83.330203 216.338028 0 299.668231 40.062598 40.062598 92.945227 62.497653 149.032864 62.497653 56.087637 0 110.57277-22.435055 149.032863-62.497653 40.062598-40.062598 62.497653-92.945227 62.497653-149.032864 0-57.690141-22.435055-110.57277-60.895149-150.635367z" fill="#ffffff" p-id="5019"></path></svg>