<?xml version="1.0" standalone="no"?><!DOCTYPE svg PUBLIC "-//W3C//DTD SVG 1.1//EN" "http://www.w3.org/Graphics/SVG/1.1/DTD/svg11.dtd"><svg t="1533349018343" class="icon" style="" viewBox="0 0 1024 1024" version="1.1" xmlns="http://www.w3.org/2000/svg" p-id="7039" xmlns:xlink="http://www.w3.org/1999/xlink" width="32" height="32"><defs><style type="text/css"></style></defs><path d="M551.384615 492.307692l0-456.861538c0-11.815385-7.876923-19.692308-19.692308-19.692308l-29.538462 0c-9.846154 0-19.692308 7.876923-19.692308 19.692308l0 456.861538-452.923077 0c-11.815385 0-19.692308 7.876923-19.692308 19.692308l0 29.538462c0 9.846154 7.876923 19.692308 19.692308 19.692308l452.923077 0 0 439.138462c0 11.815385 7.876923 19.692308 19.692308 19.692308l29.538462 0c9.846154 0 19.692308-7.876923 19.692308-19.692308l0-439.138462 443.076923 0c11.815385 0 19.692308-7.876923 19.692308-19.692308l0-29.538462c0-9.846154-7.876923-19.692308-19.692308-19.692308L551.384615 492.307692z" p-id="7040" fill="#ffffff"></path></svg>