<?xml version="1.0" standalone="no"?><!DOCTYPE svg PUBLIC "-//W3C//DTD SVG 1.1//EN" "http://www.w3.org/Graphics/SVG/1.1/DTD/svg11.dtd"><svg t="1533296343716" class="icon" style="" viewBox="0 0 1024 1024" version="1.1" xmlns="http://www.w3.org/2000/svg" p-id="10529" xmlns:xlink="http://www.w3.org/1999/xlink" width="48" height="48"><defs><style type="text/css"></style></defs><path d="M996.748333 594.33317l0-165.263951-116.779703 0c-9.704013-42.896996-26.710338-83.022878-49.6457-119.002324l82.82538-82.82538L796.288788 110.381993l-83.036181 83.036181c-35.947723-22.733771-75.997881-39.563064-118.791523-49.128931L594.461083 26.78197l-165.263951 0 0 117.469412c-42.816155 9.550517-82.888825 26.370601-118.858038 49.101301l-82.97069-82.97069L110.509906 227.241514l82.721003 82.721003c-22.969131 36.007075-39.997969 76.168774-49.711192 119.106702L26.909883 429.069219l0 165.263951 116.15037 0c9.521864 43.211151 26.447349 83.641979 49.377594 119.899764l-81.927941 81.927941 116.859521 116.859521 81.71714-81.71714c36.289508 23.13286 76.797084 40.23333 120.111588 49.894364l0 115.422799 165.263951 0L594.462107 881.159758c43.290969-9.677407 83.776032-26.786063 120.045073-49.921993l81.782631 81.782631 116.859521-116.859521-82.032318-82.032318c22.896476-36.231179 39.799448-76.626191 49.312102-119.79641L996.748333 594.332147zM510.069021 769.771855c-141.055596 0-255.402901-114.348328-255.402901-255.402901s114.347305-255.402901 255.402901-255.402901 255.402901 114.347305 255.402901 255.402901S651.124618 769.771855 510.069021 769.771855z" p-id="10530" fill="#10aeff"></path></svg>