<?xml version="1.0" standalone="no"?><!DOCTYPE svg PUBLIC "-//W3C//DTD SVG 1.1//EN" "http://www.w3.org/Graphics/SVG/1.1/DTD/svg11.dtd"><svg t="1533296034152" class="icon" style="" viewBox="0 0 1121 1024" version="1.1" xmlns="http://www.w3.org/2000/svg" p-id="4263" xmlns:xlink="http://www.w3.org/1999/xlink" width="52.546875" height="48"><defs><style type="text/css"></style></defs><path d="M840.244 151.165h-586.285c-62.275 0-112.748 50.472-112.748 112.748v496.087c0 62.275 50.472 112.748 112.748 112.748h586.285c62.274 0 112.748-50.472 112.748-112.748v-496.087c0-62.187-50.472-112.748-112.748-112.748zM884.991 590.879c0 24.927-20.171 45.098-45.098 45.098h-112.747c-56.020 0-101.472-45.451-101.472-101.472s45.451-101.472 101.472-101.472h112.747c24.927 0 45.098 20.171 45.098 45.098v112.748z" p-id="4264" fill="#10aeff"></path><path d="M694.994 534.506c0 0 0 0 0 0 0 18.682 15.143 33.824 33.824 33.824 18.682 0 33.824-15.143 33.824-33.824 0 0 0 0 0 0 0 0 0 0 0 0 0-18.682-15.143-33.824-33.824-33.824-18.682 0-33.824 15.143-33.824 33.824 0 0 0 0 0 0z" p-id="4265" fill="#10aeff"></path></svg>